<?xml version="1.0" standalone="no"?>
<!DOCTYPE svg PUBLIC "-//W3C//DTD SVG 20010904//EN" "http://www.w3.org/TR/2001/REC-SVG-20010904/DTD/svg10.dtd">
<!-- Created using Krita: https://krita.org -->
<svg xmlns="http://www.w3.org/2000/svg" 
    xmlns:xlink="http://www.w3.org/1999/xlink"
    xmlns:krita="http://krita.org/namespaces/svg/krita"
    xmlns:sodipodi="http://sodipodi.sourceforge.net/DTD/sodipodi-0.dtd"
    width="72pt"
    height="74.88pt"
    viewBox="0 0 72 74.88">
<defs/>
<g id="group0" transform="matrix(0.72 0 0 0.72 0 0)" display="none" fill="none">
  <path id="shape0" transform="translate(12.664, 14.492)" opacity="0.2" fill="none" stroke="#000000" stroke-width="3" stroke-linecap="round" stroke-linejoin="round" d="M37.337 0L48.874 23.375L74.672 27.125L56.005 45.32L60.411 71.016L37.337 58.883L14.263 71.016L18.669 45.32L0 27.125L25.8 23.375Z" sodipodi:nodetypes="ccccccccccc"/>
 </g><g id="group1" transform="matrix(0.72 0 0 0.72 0 0)" fill="none">
  <g id="group2" fill="none">
   <g id="group3" fill="none">
    <path id="shape1" transform="translate(35.6752145622502, 12.7097801420298)" fill="#000000" stroke-opacity="0" stroke="#000000" stroke-width="0" stroke-linecap="square" stroke-linejoin="bevel" d="M5.96779 24.3372C8.44779 17.2222 13.3168 11.2512 16.6658 4.55422C18.3918 1.10422 13.2158 -1.93478 11.4848 1.52622C7.88779 8.71722 2.84979 15.0912 0.182785 22.7432C-1.09521 26.4062 4.70279 27.9672 5.96779 24.3372Z" sodipodi:nodetypes="cccccc"/>
   </g>
  </g>
  <g id="group4" fill="none">
   <g id="group5" fill="none">
    <path id="shape2" transform="translate(46.4099090248326, 12.5860668707836)" fill="#000000" stroke-opacity="0" stroke="#000000" stroke-width="0" stroke-linecap="square" stroke-linejoin="bevel" d="M0.969091 5.03493C3.15709 6.97693 4.61009 9.94393 6.02309 12.4539C7.31609 14.7489 10.4061 19.3159 9.94709 22.1169C9.32709 25.9009 15.1081 27.5229 15.7321 23.7119C16.4081 19.5869 14.2811 15.4869 12.5061 11.8889C10.6601 8.14693 8.38709 3.61393 5.21009 0.793933C2.32909 -1.76607 -1.93091 2.46193 0.969091 5.03493Z" sodipodi:nodetypes="cccccccc"/>
   </g>
  </g>
  <g id="group6" fill="none">
   <g id="group7" fill="none">
    <path id="shape3" transform="translate(10.2753934993845, 34.5348342073198)" fill="#000000" stroke-opacity="0" stroke="#000000" stroke-width="0" stroke-linecap="square" stroke-linejoin="bevel" d="M3.77161 10.1082C12.3816 8.84617 20.9966 7.61917 29.5216 5.85817C33.3096 5.07517 31.7026 -0.707834 27.9266 0.0721658C19.4006 1.83417 10.7866 3.06017 2.17661 4.32217C-1.63939 4.88217 -0.0113935 10.6622 3.77161 10.1082Z" sodipodi:nodetypes="cccccc"/>
   </g>
  </g>
  <g id="group8" fill="none">
   <g id="group9" fill="none">
    <path id="shape4" transform="translate(10.0875231840677, 39.408713937802)" fill="#000000" stroke-opacity="0" stroke="#000000" stroke-width="0" stroke-linecap="square" stroke-linejoin="bevel" d="M0.791477 5.21229C6.49648 11.6553 9.78448 19.9113 16.5415 25.4623C19.5045 27.8973 23.7755 23.6783 20.7835 21.2203C14.0745 15.7083 10.7235 7.39529 5.03348 0.970286C2.46348 -1.93171 -1.76352 2.32729 0.791477 5.21229Z" sodipodi:nodetypes="cccccc"/>
   </g>
  </g>
  <g id="group10" fill="none">
   <g id="group11" fill="none">
    <path id="shape5" transform="translate(24.3951039245845, 60.3582441148114)" fill="#000000" stroke-opacity="0" stroke="#000000" stroke-width="0" stroke-linecap="square" stroke-linejoin="bevel" d="M1.3549 2.89176C1.5709 6.48476 1.3849 10.1248 1.2729 13.7188C1.2009 16.0188 1.0919 18.3188 0.947896 20.6148C0.881896 21.6698 0.791896 22.7218 0.685896 23.7738C0.573896 24.8858 -0.0321039 25.1508 0.982896 24.2698C-1.9431 26.8118 2.3189 31.0378 5.2249 28.5118C7.5739 26.4708 6.9689 20.4908 7.1079 17.7788C7.3599 12.8538 7.6499 7.82076 7.3539 2.89076C7.1239 -0.952244 1.1219 -0.975244 1.3549 2.89176Z" sodipodi:nodetypes="cccccccccc"/>
   </g>
  </g>
  <g id="group12" fill="none">
   <g id="group13" fill="none">
    <path id="shape6" transform="translate(24.1853718753698, 70.5638220532276)" fill="#000000" stroke-opacity="0" stroke="#000000" stroke-width="0" stroke-linecap="square" stroke-linejoin="bevel" d="M4.57863 19.0262C11.7256 15.6782 16.5636 7.09818 24.6116 5.82918C28.4246 5.22718 26.8006 -0.553822 23.0166 0.0431779C14.1826 1.43618 9.25763 10.2352 1.55063 13.8462C-1.95137 15.4862 1.09763 20.6572 4.57863 19.0262Z" sodipodi:nodetypes="cccccc"/>
   </g>
  </g>
  <g id="group14" fill="none">
   <g id="group15" fill="none">
    <path id="shape7" transform="translate(45.1724572538979, 70.352213937801)" fill="#000000" stroke-opacity="0" stroke="#000000" stroke-width="0" stroke-linecap="square" stroke-linejoin="bevel" d="M1.31354 5.73779C8.47654 10.8828 16.2775 14.9028 24.9035 16.9028C28.6685 17.7758 30.2665 11.9898 26.4985 11.1168C18.3385 9.22579 11.1105 5.41979 4.34154 0.557786C1.19254 -1.70521 -1.79846 3.50279 1.31354 5.73779Z" sodipodi:nodetypes="cccccc"/>
   </g>
  </g>
  <g id="group16" fill="none">
   <g id="group17" fill="none">
    <path id="shape8" transform="translate(65.3132613416027, 56.0271236944503)" fill="#000000" stroke-opacity="0" stroke="#000000" stroke-width="0" stroke-linecap="square" stroke-linejoin="bevel" d="M0.0437387 3.76988C1.29274 11.6269 1.95974 19.5619 3.42874 27.3849C4.14174 31.1849 9.92374 29.5709 9.21374 25.7899C7.74574 17.9679 7.07774 10.0309 5.82874 2.17488C5.22374 -1.63712 -0.557261 -0.0131237 0.0437387 3.76988Z" sodipodi:nodetypes="cccccc"/>
   </g>
  </g>
  <g id="group18" fill="none">
   <g id="group19" fill="none">
    <path id="shape9" transform="translate(65.3379720627537, 37.3453148333955)" fill="#000000" stroke-opacity="0" stroke="#000000" stroke-width="0" stroke-linecap="square" stroke-linejoin="bevel" d="M5.28303 24.5257C12.589 18.7597 18.855 11.9067 25.236 5.16669C27.894 2.35969 23.658 -1.89031 20.994 0.924685C14.612 7.66469 8.34703 14.5167 1.04103 20.2837C-1.99497 22.6797 2.28203 26.8947 5.28303 24.5257Z" sodipodi:nodetypes="cccccc"/>
   </g>
  </g>
  <g id="group20" fill="none">
   <g id="group21" fill="none">
    <path id="shape10" transform="translate(56.7913754124515, 33.2818885640579)" fill="#000000" stroke-opacity="0" stroke="#000000" stroke-width="0" stroke-linecap="square" stroke-linejoin="bevel" d="M2.16162 5.86111C11.8866 7.90011 21.4846 9.98311 31.4776 9.05111C35.2956 8.69511 35.3306 2.69211 31.4776 3.05111C21.9996 3.93511 12.9816 2.00911 3.75662 0.0741114C-0.0193754 -0.716889 -1.62438 5.06711 2.16162 5.86111Z" sodipodi:nodetypes="cccccc"/>
   </g>
  </g>
 </g><text id="shape11" krita:useRichText="false" text-rendering="auto" krita:textVersion="3" transform="matrix(0.72 0 0 0.72 0 0)" fill="#000000" stroke-opacity="0" stroke="#000000" stroke-width="0" stroke-linecap="square" stroke-linejoin="bevel" x="0" y="115" style="text-align: start;text-align-last: auto;font-family: Helvetica Neue,Helvetica,Arial-Unicode,Arial,Sans-serif;font-size: 5;font-weight: 700;">Created by Linseed Studio</text><text id="shape12" krita:useRichText="false" text-rendering="auto" krita:textVersion="3" transform="matrix(0.72 0 0 0.72 0 0)" fill="#000000" stroke-opacity="0" stroke="#000000" stroke-width="0" stroke-linecap="square" stroke-linejoin="bevel" x="0" y="120" style="text-align: start;text-align-last: auto;font-family: Helvetica Neue,Helvetica,Arial-Unicode,Arial,Sans-serif;font-size: 5;font-weight: 700;">from the Noun Project</text>
</svg>
