<?xml version="1.0" encoding="utf-8"?>
<!-- Uploaded to: SVG Repo, www.svgrepo.com, Generator: SVG Repo Mixer Tools -->
<svg fill="#000000" width="800px" height="800px" viewBox="-9 0 32 32" version="1.1" xmlns="http://www.w3.org/2000/svg">
<title>mercury</title>
<path d="M13.76 13.596c0-2.6-1.44-4.88-3.6-6.040 1.12-0.6 2.080-1.52 2.72-2.68 0.24-0.4 0.080-0.92-0.32-1.16s-0.92-0.080-1.16 0.32c-0.92 1.64-2.68 2.68-4.56 2.68s-3.64-1.040-4.56-2.68c-0.2-0.4-0.68-0.56-1.12-0.32-0.4 0.24-0.56 0.72-0.32 1.12 0.64 1.16 1.6 2.12 2.76 2.72-2.16 1.2-3.6 3.44-3.6 6.040 0 3.52 2.64 6.4 6.040 6.84v3.56h-2c-0.48 0-0.84 0.36-0.84 0.84s0.36 0.84 0.84 0.84h2v1.88c0 0.48 0.36 0.84 0.84 0.84s0.84-0.36 0.84-0.84v-1.88h2c0.48 0 0.84-0.36 0.84-0.84s-0.36-0.84-0.84-0.84h-2v-3.56c3.4-0.4 6.040-3.32 6.040-6.84zM1.68 13.596c0-2.88 2.32-5.2 5.2-5.2s5.2 2.32 5.2 5.2-2.32 5.2-5.2 5.2-5.2-2.32-5.2-5.2z"></path>
</svg>